Spartacus Vengeance - A Place In This World - S02E02

Releaser:
r3mnants
 
http://www.shotpix.com/images/58766045979718117852.png 
http://www.shotpix.com/images/71549225392637645482.png

Format                                   : MPEG-4
Format profile                           : Base Media
Codec ID                                 : isom
File size                                : 737 MiB
Duration                                 : 51mn 58s
Overall bit rate mode                    : Variable
Overall bit rate                         : 1981 Kbps

Video
ID                                       : 1
Format                                   : AVC
Format/Info                              : Advanced Video Codec
Format profile                           : High@L4.0
Format settings, CABAC                   : Yes
Format settings, ReFrames                : 3 frames
Codec ID                                 : avc1
Codec ID/Info                            : Advanced Video Coding
Duration                                 : 51mn 58s
Bit rate mode                            : Variable
Bit rate                                 : 1849 Kbps
Maximum bit rate                         : 25.0 Mbps
Width                                    : 1280 pixels
Height                                   : 720 pixels
Display aspect ratio                     : 16:9
Frame rate mode                          : Constant
Frame rate                               : 29.970 fps
Color space                              : YUV
Chroma subsampling                       : 4:2:0
Bit depth                                : 8 bits
Scan type                                : Progressive
Bits/(Pixel*Frame)                       : 0.067
Stream size                              : 688 MiB (93%)
Title                                    : Spartacus Vengeance
Writing library                          : x264 core 120 r2120 0c7dab9

Audio
ID                                       : 2
Format                                   : AAC
Format/Info                              : Advanced Audio Codec
Format profile                           : LC
Codec ID                                 : 40
Duration                                 : 51mn 58s
Bit rate mode                            : Variable
Bit rate                                 : 128 Kbps
Maximum bit rate                         : 175 Kbps
Channel(s)                               : 2 channels
Channel positions                        : Front: L R
Sampling rate                            : 48.0 KHz
Compression mode                         : Lossy
Stream size                              : 47.6 MiB (6%)